<svg width="211" height="148" viewBox="0 0 211 148" fill="none" xmlns="http://www.w3.org/2000/svg">
<path d="M128.873 28.2512C141.622 28.2512 151.957 38.5864 151.957 51.3352C151.957 64.0839 141.622 74.4192 128.873 74.4192L129.469 74.426C141.942 74.7419 151.957 84.9527 151.957 97.5022C151.957 110.251 141.622 120.586 128.873 120.586C116.124 120.586 105.789 110.251 105.789 97.5022C105.789 110.251 95.4547 120.586 82.7061 120.586C69.9573 120.586 59.6221 110.251 59.6221 97.5022C59.6222 84.7535 69.9573 74.4192 82.7061 74.4192L82.1104 74.4114C69.6368 74.0955 59.6222 63.8848 59.6221 51.3352C59.6221 38.5864 69.9573 28.2512 82.7061 28.2512C95.4421 28.2514 105.769 38.5658 105.789 51.2971C105.81 38.5658 116.137 28.2513 128.873 28.2512Z" fill="#223865"/>
<mask id="mask0_480_1556" style="mask-type:alpha" maskUnits="userSpaceOnUse" x="84" y="53" width="43" height="43">
<rect x="84.8042" y="53.4335" width="41.9704" height="41.9704" fill="#D9D9D9"/>
</mask>
<g mask="url(#mask0_480_1556)">
<path d="M101.505 84.9115L91.5371 74.9435L94.0291 72.4515L101.505 79.9275L117.55 63.8826L120.042 66.3746L101.505 84.9115Z" fill="#F6F7F9"/>
</g>
</svg>
