<svg width="260" height="126" viewBox="0 0 260 126" fill="none" xmlns="http://www.w3.org/2000/svg">
<path d="M257.156 115.208C257.331 114.99 257.375 114.859 257.463 114.772C259.129 113.027 259.524 111.021 258.559 108.84C257.551 106.528 255.797 105.132 253.253 105.089C248.298 105.002 243.342 105.045 238.299 105.045V125.022C243.474 125.022 248.561 125.066 253.648 124.978C255.972 124.935 258.121 122.972 258.822 120.66C259.48 118.523 258.779 116.691 257.156 115.208ZM252.727 121.882C249.394 122.012 246.061 121.969 242.728 121.925C242.509 121.925 242.158 121.402 242.114 121.14C242.07 117.04 242.07 112.984 242.114 108.927C242.114 108.665 242.641 108.186 242.904 108.186C246.017 108.142 249.131 108.098 252.244 108.186C253.692 108.229 255.007 109.756 254.92 111.195C254.832 112.46 253.604 113.463 252.157 113.463H248.517V116.691C249.789 116.691 251.017 116.691 252.244 116.691C253.692 116.691 254.832 117.607 254.92 118.916C255.051 120.268 253.999 121.838 252.727 121.882Z" fill="white"/>
<path d="M81.0849 104.39C75.2086 104.347 70.604 108.883 70.5601 114.684C70.5163 120.529 75.1209 125.152 80.9095 125.196C86.742 125.196 91.4782 120.616 91.4782 114.902C91.5659 108.97 87.0928 104.434 81.0849 104.39ZM81.0411 121.27C77.489 121.27 74.5069 118.304 74.5508 114.771C74.5946 111.151 77.5328 108.229 81.0411 108.272C84.5494 108.316 87.6191 111.369 87.5752 114.815C87.5314 118.392 84.6371 121.27 81.0411 121.27Z" fill="white"/>
<path d="M17.936 119.569C18.6815 121.27 19.2078 123.102 19.9094 125.021H15.6118C15.4802 124.542 15.3925 124.062 15.261 123.582C14.5593 120.354 12.1474 118.348 8.85838 118.348C6.00791 118.304 3.11358 118.348 0.175411 118.348C0.087704 117.388 0 116.56 0 115.731C0 114.728 0.74551 114.466 1.57872 114.466C3.11359 114.466 4.64846 114.553 6.18332 114.553C8.72682 114.51 11.3142 114.51 13.8577 114.379C15.8311 114.248 16.9274 113.114 16.9713 111.369C17.0151 109.93 15.7872 108.534 14.0331 108.447C11.0949 108.272 8.11287 108.316 5.13085 108.272C3.50827 108.272 1.8857 108.272 0.087712 108.272C0.087712 107.444 0.087712 106.702 0.087712 105.961C0.087712 105.001 0.613944 104.521 1.49101 104.521C6.18332 104.521 10.8756 104.434 15.5241 104.739C18.2868 104.914 20.041 106.789 20.8742 109.406C21.7951 112.242 21.0058 114.728 18.7692 116.516C17.4975 117.432 17.3659 118.217 17.936 119.569Z" fill="white"/>
<path d="M159.494 115.338C158.749 116.298 157.872 117.126 156.995 118.129C158.354 120.18 159.363 122.317 159.1 124.977H155.504C155.109 123.887 154.714 122.797 154.232 121.793C153.136 119.482 151.294 118.348 148.75 118.348C145.9 118.348 143.093 118.348 140.155 118.348V114.596C140.901 114.553 141.69 114.509 142.436 114.509C145.681 114.509 148.926 114.509 152.171 114.466C152.917 114.466 153.706 114.422 154.451 114.291C155.986 114.029 156.951 112.765 156.907 111.194C156.863 109.668 155.811 108.446 154.232 108.403C150.241 108.272 146.207 108.272 142.216 108.228C141.602 108.228 140.945 108.228 140.111 108.228C140.111 107.225 140.111 106.353 140.111 105.524C140.111 105.219 140.155 104.913 140.199 104.39C141.69 104.39 143.181 104.39 144.628 104.39C148.005 104.434 151.382 104.434 154.758 104.608C157.39 104.739 159.319 106.178 160.415 108.577C161.468 110.976 161.117 113.288 159.494 115.338Z" fill="white"/>
<path d="M137.349 124.105C137.305 124.498 136.691 125.065 136.34 125.065C132.35 125.021 128.315 125.196 124.368 124.76C119.457 124.193 116.168 119.308 116.562 113.855C116.913 108.839 120.86 104.827 125.728 104.652C128.841 104.521 131.911 104.521 135.025 104.521C137.217 104.521 137.436 104.739 137.436 106.92V108.36C134.761 108.36 132.262 108.36 129.762 108.36C128.622 108.36 127.526 108.316 126.385 108.403C122.921 108.665 120.246 111.718 120.421 115.12C120.553 118.435 123.491 121.27 126.868 121.314C130.332 121.358 133.797 121.314 137.436 121.314C137.436 122.274 137.524 123.19 137.349 124.105Z" fill="white"/>
<path d="M66.9202 125.065C63.0173 125.108 59.0705 125.239 55.2114 124.759C50.2121 124.149 46.7916 119.307 47.1424 113.986C47.4494 108.926 51.5277 104.739 56.4831 104.564C59.9037 104.434 63.3243 104.434 66.7448 104.39C67.1395 104.39 67.5342 104.477 67.9727 104.521V108.097C67.1395 108.141 66.3063 108.185 65.4731 108.228C62.6665 108.272 59.8599 108.185 57.0971 108.403C54.0712 108.621 51.7031 110.758 51.2207 113.462C50.4752 117.65 53.3696 121.183 57.6233 121.27C60.6931 121.314 63.7628 121.314 66.8325 121.314C67.6219 121.314 68.3235 121.357 68.1481 122.448C67.9727 123.451 68.6744 125.065 66.9202 125.065Z" fill="white"/>
<path d="M44.4235 124.235C44.3796 124.584 43.8095 125.064 43.4587 125.064C39.5558 125.02 35.609 125.195 31.706 124.759C26.7506 124.192 23.4616 119.655 23.5932 114.16C23.6809 109.493 27.6277 105.131 32.2323 104.564C33.2847 104.433 34.3811 104.389 35.4774 104.389C38.4156 104.346 41.3099 104.389 44.3796 104.389V108.228C41.9677 108.228 39.6435 108.184 37.3193 108.228C35.6528 108.271 33.9426 108.228 32.3638 108.62C28.9433 109.449 27.1891 112.284 27.6715 115.861C28.0662 118.783 30.829 121.226 33.9864 121.269C37.407 121.313 40.8275 121.269 44.4235 121.269C44.5112 122.316 44.5551 123.276 44.4235 124.235Z" fill="white"/>
<path d="M235.273 124.978H231.721C231.721 123.364 231.765 121.794 231.721 120.224C231.677 117.999 231.809 115.731 231.458 113.55C230.888 110.061 228.257 108.011 224.968 108.098C221.635 108.185 219.047 110.453 218.74 113.986C218.477 117.039 218.565 120.18 218.521 123.277C218.521 123.8 218.521 124.324 218.521 124.891C218.258 124.978 218.083 125.021 217.907 125.065C214.794 125.24 214.662 125.152 214.706 122.099C214.75 119.133 214.794 116.167 214.969 113.245C215.276 108.272 219.53 104.39 224.792 104.085C229.66 103.823 234.703 107.487 235.185 112.242C235.624 116.385 235.273 120.616 235.273 124.978Z" fill="white"/>
<path d="M184.623 104.652C184.403 107.836 184.447 110.933 183.921 113.986C183.351 117.345 181.158 119.656 177.957 120.921C176.51 121.488 175.501 122.143 175.764 123.931C175.808 124.28 175.238 124.934 174.8 125.065C172.87 125.632 172.037 125.021 171.949 123.059C171.905 121.837 170.94 121.445 170.019 121.052C166.687 119.656 164.231 117.388 163.661 113.768C163.178 110.759 163.31 107.662 163.135 104.521H167.344C167.344 106.833 167.257 109.145 167.388 111.413C167.52 114.03 168.66 116.211 171.204 117.301C173.572 118.348 175.852 118.043 177.913 116.385C179.185 115.382 180.062 114.03 180.106 112.372C180.193 109.843 180.106 107.269 180.106 104.608H184.623V104.652Z" fill="white"/>
<path d="M212.119 123.538V124.977H195.498V121.662C195.498 116.646 195.498 111.63 195.498 106.614C195.498 104.433 195.63 104.303 197.779 104.303H199.314V121.226H209.838C211.987 121.27 212.119 121.401 212.119 123.538Z" fill="white"/>
<path d="M114.15 102.994C110.116 110.54 106.213 117.911 102.222 125.37C100.161 121.575 98.2314 117.911 96.1265 113.942C97.6175 114.029 99.1085 113.724 100.029 114.291C100.994 114.902 101.433 116.385 102.178 117.65C102.968 116.21 103.625 114.989 104.327 113.724C106.037 110.584 107.791 107.443 109.414 104.259C109.94 103.256 110.51 102.732 111.694 102.907C112.396 103.081 113.142 102.994 114.15 102.994Z" fill="white"/>
<path d="M137.436 116.516H126.78C126.692 116.385 126.692 116.385 126.692 116.342C126.429 112.373 126.692 112.94 129.718 112.896C131.692 112.896 133.665 112.896 135.638 112.896C137.173 112.896 137.393 113.201 137.436 114.728C137.436 115.295 137.436 115.906 137.436 116.516Z" fill="white"/>
<path d="M230.318 115.207V118.828H219.925C219.881 118.697 219.837 118.653 219.837 118.61C219.179 115.644 219.486 115.207 222.512 115.207C225.099 115.164 227.687 115.207 230.318 115.207Z" fill="white"/>
<path d="M44.4673 116.56C41.1345 116.56 37.8893 116.56 34.6442 116.56C33.5479 116.56 33.7233 115.775 33.6794 115.164C33.6794 114.248 33.4163 113.027 34.7758 112.983C37.7578 112.852 40.696 112.896 43.678 112.983C44.0288 112.983 44.5112 113.725 44.5989 114.161C44.6866 114.859 44.5112 115.644 44.4673 116.56Z" fill="white"/>
<path d="M136.296 14.5372H106.476L113.975 28.5821H98.1001L83.1899 0.623291H143.62L136.296 14.5372Z" fill="white"/>
<path d="M176.291 0.623535L129.718 87.7711L121.781 72.9412L106.125 43.6303H122L129.718 58.1113L160.416 0.623535H176.291Z" fill="white"/>
</svg>
